<?xml version="1.0" encoding="UTF-8" standalone="no"?>
<svg
   width="72.048798mm"
   height="20.1574mm"
   viewBox="0 0 72.048798 20.1574"
   version="1.1"
   id="svg1"
   xmlns="http://www.w3.org/2000/svg"
   xmlns:svg="http://www.w3.org/2000/svg">
  <defs
     id="defs1" />
  <g
     id="layer1"
     transform="translate(-60.319675,-111.7211)">
    <g
       id="_105431360"
       style="clip-rule:evenodd;fill-rule:evenodd;image-rendering:optimizeQuality;shape-rendering:geometricPrecision;text-rendering:geometricPrecision;fill:#ffffff"
       transform="translate(23.312575,40.526497)">
      <path
         id="_105907880"
         class="fil3"
         d="m 74.2874,84.0028 c -0.4869,0 -0.7259,-0.1612 -0.7259,-0.4833 v -1.672 c 0,-0.5101 0.4389,-1.111 1.3211,-1.7993 1.708,-1.2789 2.7682,-2.1383 3.1852,-2.578 0.4173,-0.4363 0.6211,-0.9198 0.6211,-1.4434 v -2.0895 c 0,-1.8296 -1.5425,-2.7427 -4.6322,-2.7427 h -4.493 v 1.9166 h 4.5934 c 0.469,0 0.7037,0.2722 0.7037,0.8159 l -0.0782,1.4217 c 0,0.5236 -0.4518,1.1344 -1.3513,1.8294 -1.6688,1.2386 -2.7334,2.1047 -3.1855,2.595 -0.4561,0.4899 -0.6821,1.0523 -0.6821,1.6717 v 1.7992 c 0,1.8747 1.5471,2.8131 4.6455,2.8131 l 34.8335,0.0018 0.0132,-2.0612 z m -10.1933,0 c 0.4869,0 0.7259,-0.1612 0.7259,-0.4833 v -1.672 c 0,-0.5101 -0.4389,-1.111 -1.3212,-1.7993 -1.7079,-1.2789 -2.7682,-2.1383 -3.1851,-2.578 -0.4173,-0.4363 -0.6212,-0.9198 -0.6212,-1.4434 v -2.0895 c 0,-1.8296 1.5426,-2.7427 4.6323,-2.7427 h 4.493 v 1.9166 h -4.5934 c -0.469,0 -0.7037,0.2722 -0.7037,0.8159 l 0.0782,1.4217 c 0,0.5236 0.4518,1.1344 1.3513,1.8294 1.6688,1.2386 2.7334,2.1047 3.1855,2.595 0.4561,0.4899 0.6821,1.0523 0.6821,1.6717 v 1.7992 c 0,1.8747 -1.5471,2.8131 -4.6455,2.8131 L 37.0256,86.059 v -2.0612 z"
         style="fill:#ffffff;fill-rule:nonzero" />
      <path
         id="_105907808"
         class="fil3"
         d="m 89.1778,71.7066 -2.3205,4.7687 -1.1623,2.3858 v 4.6785 h -3.552 v -4.5884 c -0.0693,-0.4169 -0.3733,-1.2337 -0.9121,-2.4506 -0.4657,-1.0281 -1.1507,-2.6279 -2.055,-4.794 h 3.3942 l 1.601,4.1913 1.8164,-4.1913 z m 9.494,11.833 h -3.6521 l -2.413,-6.3038 v 6.3038 h -2.9632 v -11.833 h 4.0331 l 2.0318,5.3968 v -5.3968 h 2.9634 z m 10.3751,0 h -3.5174 l -0.6004,-3.1773 h -1.5893 l -0.5964,3.1773 H 99.226 l 2.6591,-11.833 h 4.4988 z m -4.4102,-4.8193 -0.5079,-3.5323 -0.485,3.5323 z"
         style="fill:#ffffff;fill-rule:nonzero" />
      <path
         id="_105907736"
         class="fil3"
         d="m 37.0071,90.1696 h 0.7599 v 0.6627 c 0,0.066 0.0524,0.099 0.1564,0.099 0.1014,0 0.1512,-0.033 0.1512,-0.099 V 90.49 c 0,-0.1045 -0.0914,-0.2276 -0.275,-0.3685 -0.3557,-0.2619 -0.5763,-0.4379 -0.6632,-0.528 -0.0869,-0.0893 -0.1293,-0.1883 -0.1293,-0.2956 v -0.3245 c 0,-0.3746 0.321,-0.5616 0.9643,-0.5616 0.5763,0 0.864,0.1705 0.864,0.5115 v 0.499 h -0.7608 v -0.5314 c 0,-0.0577 -0.0417,-0.0866 -0.124,-0.0866 -0.0977,0 -0.1465,0.0558 -0.1465,0.1671 l 0.0162,0.1876 c 0,0.1073 0.0941,0.2324 0.2813,0.3747 0.3475,0.2537 0.5692,0.431 0.6632,0.5314 0.095,0.1004 0.1421,0.2152 0.1421,0.3424 v 0.3685 c 0,0.3842 -0.3221,0.576 -0.9671,0.576 -0.6225,0 -0.9327,-0.1746 -0.9327,-0.5238 z m 4.7462,-1.7317 -0.5454,1.1639 -0.2733,0.5823 v 1.1418 h -0.835 V 90.206 C 40.0833,90.1043 40.0119,89.9049 39.8852,89.608 39.7757,89.357 39.6147,88.9666 39.4021,88.4379 H 40.2 l 0.3764,1.023 0.4271,-1.023 z m 3.4031,2.888 h -0.7445 v -1.621 l -0.4344,1.621 h -0.5753 l -0.4986,-1.621 v 1.621 h -0.6522 v -2.888 h 1.0739 l 0.3818,1.4986 0.331,-1.4986 h 1.1183 z m 0.5677,-2.888 h 0.835 v 2.4247 c 0,0.0577 0.0462,0.0865 0.1402,0.0865 0.0914,0 0.1376,-0.0288 0.1376,-0.0865 v -2.4247 h 0.8351 v 2.3903 c 0,0.167 -0.0915,0.2956 -0.2733,0.387 -0.1818,0.0914 -0.4152,0.1368 -0.6994,0.1368 -0.2633,0 -0.4922,-0.0406 -0.6857,-0.1231 -0.1927,-0.0817 -0.2895,-0.2137 -0.2895,-0.3966 z m 4.0897,2.888 h -1.5671 v -2.888 h 0.8352 v 2.5175 h 0.7319 z m 2.7724,0 h -0.8269 l -0.1412,-0.7755 h -0.3737 l -0.1402,0.7755 h -0.827 l 0.6252,-2.888 h 1.0577 z M 51.5493,90.1497 51.43,89.2876 51.3159,90.1497 Z m 3.2971,-1.3351 h -0.4659 v 2.5113 h -0.835 v -2.5113 h -0.4669 v -0.3767 h 1.7678 z m 0.5387,2.0177 v -1.8589 c 0,-0.3746 0.3194,-0.5616 0.959,-0.5616 0.6316,0 0.9464,0.1856 0.9464,0.5576 v 1.8588 c 0,0.1684 -0.0877,0.297 -0.2633,0.3878 -0.1764,0.0906 -0.4053,0.136 -0.6885,0.136 -0.636,0 -0.9536,-0.1732 -0.9536,-0.5197 z m 1.0893,0.0303 v -1.9675 c 0,-0.0578 -0.0451,-0.0867 -0.1357,-0.0867 -0.0932,0 -0.1402,0.0289 -0.1402,0.0867 v 1.9675 c 0,0.0577 0.047,0.0865 0.1402,0.0865 0.0906,0 0.1357,-0.0288 0.1357,-0.0865 z M 59.9146,91.33 H 59.0794 C 58.989,91.2482 58.9446,91.0159 58.9446,90.6329 v -0.004 l 0.0045,-0.1733 c 0.0055,-0.2399 0.0082,-0.3629 0.0082,-0.3685 0,-0.0976 -0.0859,-0.1471 -0.2597,-0.1471 v 1.3859 h -0.835 v -2.888 h 1.0314 c 0.2352,0 0.4397,0.0406 0.6134,0.1231 0.1746,0.0818 0.2614,0.211 0.2614,0.3884 v 0.3465 c 0,0.224 -0.1728,0.376 -0.5174,0.455 0.3464,0.0619 0.5201,0.2207 0.5201,0.4771 l -0.0135,0.3163 c 0,0.462 0.0525,0.7238 0.1566,0.7857 z m -0.9573,-1.8932 v -0.475 c 0,-0.1011 -0.0859,-0.1512 -0.2597,-0.1512 v 0.7795 c 0.1738,0 0.2597,-0.0515 0.2597,-0.1533 z m 4.2053,0.8256 v 1.0635 h -0.8132 v -2.888 h 0.8766 c 0.3483,0 0.6071,0.0337 0.7753,0.1004 0.1692,0.0674 0.2535,0.2042 0.2535,0.4111 v 0.8015 c 0,0.1891 -0.0689,0.3231 -0.2072,0.4015 -0.1375,0.0791 -0.4326,0.1156 -0.885,0.11 z m 0.2787,-0.5658 v -0.6929 c 0,-0.1017 -0.0931,-0.1533 -0.2787,-0.1533 V 89.85 c 0.1856,0 0.2787,-0.0516 0.2787,-0.1534 z m 1.3429,1.1357 v -1.8589 c 0,-0.3746 0.3195,-0.5616 0.959,-0.5616 0.6316,0 0.9464,0.1856 0.9464,0.5576 v 1.8588 c 0,0.1684 -0.0877,0.297 -0.2633,0.3878 -0.1764,0.0906 -0.4053,0.136 -0.6884,0.136 -0.6361,0 -0.9537,-0.1732 -0.9537,-0.5197 z m 1.0893,0.0303 v -1.9675 c 0,-0.0578 -0.0451,-0.0867 -0.1356,-0.0867 -0.0933,0 -0.1402,0.0289 -0.1402,0.0867 v 1.9675 c 0,0.0577 0.0469,0.0865 0.1402,0.0865 0.0905,0 0.1356,-0.0288 0.1356,-0.0865 z m 1.3702,-0.6971 H 67.98 v 0.7136 c 0,0.0467 0.039,0.07 0.1168,0.07 0.0778,0 0.1166,-0.0233 0.1166,-0.07 v -2.4412 h 0.8351 v 2.3944 c 0,0.3465 -0.3157,0.5197 -0.9463,0.5197 -0.2244,0 -0.4234,-0.0412 -0.5979,-0.1251 -0.1738,-0.0832 -0.2606,-0.1925 -0.2606,-0.3279 z m 4.6199,1.1604 h -0.8269 l -0.1412,-0.7755 h -0.3737 l -0.1402,0.7755 h -0.827 l 0.6252,-2.888 h 1.0577 z m -1.0369,-1.1762 -0.1193,-0.8621 -0.1141,0.8621 z m 3.4012,1.1762 h -1.8845 v -0.3664 l 0.9192,-2.1449 h -0.864 v -0.3767 h 1.7652 v 0.3809 L 73.25,90.9554 h 0.9779 z m 0.5242,0 v -2.888 h 1.0386 c 0.2262,0 0.4278,0.0468 0.6043,0.1396 0.1774,0.0934 0.2651,0.2371 0.2651,0.4303 v 1.7482 c 0,0.1801 -0.0823,0.3197 -0.2479,0.42 -0.1646,0.0997 -0.3701,0.1499 -0.6162,0.1499 z m 1.0674,-0.5239 v -1.8402 c 0,-0.1011 -0.0768,-0.1512 -0.2325,-0.1512 v 2.1448 c 0.1557,0 0.2325,-0.0509 0.2325,-0.1534 z m 1.3946,0.0303 v -1.8589 c 0,-0.3746 0.3195,-0.5616 0.9589,-0.5616 0.6317,0 0.9464,0.1856 0.9464,0.5576 v 1.8588 c 0,0.1684 -0.0876,0.297 -0.2632,0.3878 -0.1764,0.0906 -0.4053,0.136 -0.6885,0.136 -0.636,0 -0.9536,-0.1732 -0.9536,-0.5197 z m 1.0893,0.0303 v -1.9675 c 0,-0.0578 -0.0452,-0.0867 -0.1357,-0.0867 -0.0932,0 -0.1402,0.0289 -0.1402,0.0867 v 1.9675 c 0,0.0577 0.047,0.0865 0.1402,0.0865 0.0905,0 0.1357,-0.0288 0.1357,-0.0865 z m 0.3864,-2.9279 -0.3158,0.3727 h -0.4153 l 0.161,-0.3727 z m 4.3022,0.5032 -0.4876,2.888 h -0.9889 l -0.2995,-1.5928 -0.2813,1.5928 h -0.8533 l -0.4721,-2.888 h 0.7508 l 0.2118,1.333 0.2858,-1.333 h 0.941 l 0.228,1.333 0.2814,-1.333 z m 2.4214,1.7317 h 0.76 v 0.6627 c 0,0.066 0.0525,0.099 0.1564,0.099 0.1014,0 0.1512,-0.033 0.1512,-0.099 V 90.49 c 0,-0.1045 -0.0914,-0.2276 -0.275,-0.3685 -0.3557,-0.2619 -0.5764,-0.4379 -0.6633,-0.528 -0.0868,-0.0893 -0.1293,-0.1883 -0.1293,-0.2956 v -0.3245 c 0,-0.3746 0.3211,-0.5616 0.9644,-0.5616 0.5764,0 0.864,0.1705 0.864,0.5115 v 0.499 H 86.481 v -0.5314 c 0,-0.0577 -0.0416,-0.0866 -0.1239,-0.0866 -0.0978,0 -0.1466,0.0558 -0.1466,0.1671 l 0.0162,0.1876 c 0,0.1073 0.0941,0.2324 0.2814,0.3747 0.3474,0.2537 0.5692,0.431 0.6632,0.5314 0.0949,0.1004 0.142,0.2152 0.142,0.3424 v 0.3685 c 0,0.3842 -0.3221,0.576 -0.9671,0.576 -0.6225,0 -0.9328,-0.1746 -0.9328,-0.5238 z m 4.3122,1.1563 h -1.8845 v -0.3664 l 0.9192,-2.1449 h -0.8641 v -0.3767 h 1.7652 v 0.3809 l -0.9138,2.1366 h 0.978 z m 2.8139,-2.888 -0.5455,1.1639 -0.2733,0.5823 v 1.1418 h -0.835 V 90.206 c -0.0163,-0.1017 -0.0877,-0.3011 -0.2145,-0.598 -0.1094,-0.251 -0.2704,-0.6414 -0.483,-1.1701 h 0.7979 l 0.3764,1.023 0.427,-1.023 z m 2.6187,2.888 h -0.8586 l -0.5673,-1.5385 v 1.5385 h -0.6966 v -2.888 h 0.9481 l 0.4777,1.3172 v -1.3172 h 0.6967 z m 0.5621,-0.4936 v -1.8589 c 0,-0.3746 0.3194,-0.5616 0.959,-0.5616 0.6316,0 0.9463,0.1856 0.9463,0.5576 v 1.8588 c 0,0.1684 -0.0877,0.297 -0.2633,0.3878 -0.1764,0.0906 -0.4053,0.136 -0.6884,0.136 -0.636,0 -0.9536,-0.1732 -0.9536,-0.5197 z m 1.0892,0.0303 v -1.9675 c 0,-0.0578 -0.0451,-0.0867 -0.1356,-0.0867 -0.0932,0 -0.1401,0.0289 -0.1401,0.0867 v 1.9675 c 0,0.0577 0.0469,0.0865 0.1401,0.0865 0.0905,0 0.1356,-0.0288 0.1356,-0.0865 z m 4.6887,-2.4247 -0.4877,2.888 h -0.9888 l -0.2995,-1.5928 -0.2813,1.5928 h -0.8532 l -0.4722,-2.888 h 0.7508 l 0.2118,1.333 0.2859,-1.333 h 0.9409 l 0.228,1.333 0.2814,-1.333 z m 2.7688,0 -0.5455,1.1639 -0.2733,0.5823 v 1.1418 h -0.835 V 90.206 c -0.0163,-0.1017 -0.0877,-0.3011 -0.2145,-0.598 -0.1094,-0.251 -0.2704,-0.6414 -0.483,-1.1701 h 0.7979 l 0.3764,1.023 0.4271,-1.023 z m 2.3218,1.0092 h -0.7608 v -0.5719 c 0,-0.0475 -0.038,-0.0709 -0.114,-0.0709 -0.0796,0 -0.1193,0.0234 -0.1193,0.0709 v 2.0039 c 0,0.0467 0.0397,0.07 0.1193,0.07 0.076,0 0.114,-0.0233 0.114,-0.07 v -0.7136 h 0.7608 v 0.7335 c 0,0.1368 -0.0885,0.2468 -0.2649,0.3293 -0.1764,0.0825 -0.3764,0.1237 -0.5991,0.1237 -0.6432,0 -0.9643,-0.1732 -0.9643,-0.5197 v -1.8589 c 0,-0.3746 0.3211,-0.5616 0.9643,-0.5616 0.5764,0 0.864,0.1705 0.864,0.5115 z m 2.4595,1.8788 h -0.8342 V 89.94 h -0.2334 v 1.3859 h -0.835 v -2.888 h 0.835 v 1.1522 h 0.2334 v -1.1522 h 0.8342 z"
         style="fill:#ffffff;fill-rule:nonzero" />
      <path
         id="_105907664"
         class="fil3"
         d="m 49.3972,83.5396 h -3.1709 v -6.6418 l -1.8494,6.6418 h -2.4505 l -2.1228,-6.6418 v 6.6418 h -2.778 v -11.833 h 4.5734 l 1.626,6.1405 1.41,-6.1405 h 4.7622 z m 10.3991,0 h -3.5216 l -0.6011,-3.1773 h -1.5912 l -0.5971,3.1773 h -3.5216 l 2.6623,-11.833 h 4.5041 z m -4.4155,-4.8193 -0.5085,-3.5323 -0.4855,3.5323 z"
         style="fill:#ffffff;fill-rule:nonzero" />
    </g>
  </g>
</svg>
